<?xml version="1.0" encoding="UTF-8" standalone="no"?>
<!-- Created with Inkscape (http://www.inkscape.org/) -->

<svg
   width="512"
   height="512"
   viewBox="0 0 512 512"
   version="1.1"
   id="svg5"
   xml:space="preserve"
   xmlns="http://www.w3.org/2000/svg"
   xmlns:svg="http://www.w3.org/2000/svg"><defs
     id="defs2" /><g
     id="layer1"><path
       id="path231"
       style="display:inline;opacity:1;fill:#ffffff;stroke-width:1.08335"
       d="m 256,44.808594 c -91.51794,1.4e-4 -165.708194,72.577056 -165.708984,162.105466 0.1248,28.67294 7.570378,56.80056 22.433594,81.51367 l 2.11719,2.98633 c 2.55716,3.96425 5.2889,7.81814 8.1875,11.55078 l 109.05468,153.82813 c 0.91274,1.28748 2.8506,3.25299 4.55664,4.55859 1.82516,1.39676 3.88073,2.49519 5.98047,3.42969 1.95263,0.86901 3.99361,1.60146 6.09375,1.99805 2.38999,0.45134 7.28516,0.41211 7.28516,0.41211 0,0 4.89513,0.0392 7.28516,-0.41211 2.10014,-0.39659 4.14112,-1.12904 6.09375,-1.99805 2.09974,-0.9345 4.15531,-2.03293 5.98047,-3.42969 1.70604,-1.3056 3.64389,-3.27111 4.55664,-4.55859 L 388.98438,302.94531 c 2.89052,-3.72285 5.61508,-7.56629 8.16601,-11.51953 l 2.125,-2.99805 C 414.1386,263.71462 421.58418,235.587 421.70898,206.91406 421.70819,117.38564 347.51794,44.808729 256,44.808594 Z m 0,38.302734 A 126.55444,123.80324 0 0 1 382.55469,206.91406 126.55444,123.80324 0 0 1 256,330.7168 126.55444,123.80324 0 0 1 129.44531,206.91406 126.55444,123.80324 0 0 1 256,83.111328 Z" /><path
       id="path2244"
       style="display:inline;opacity:1;fill:#ffffff;stroke-width:0.294392"
       d="m 256,150.45699 c -24.86923,0 -45.02982,19.72202 -45.03019,44.0506 0.017,15.2091 8.05273,29.33378 21.25651,37.36342 v 38.60863 a 6,6 45 0 0 6,6 h 36.24642 a 6,6 135 0 0 6,-6 V 231.4722 c 12.81441,-8.11615 20.55289,-22.03078 20.55745,-36.96461 -3.7e-4,-24.32858 -20.16096,-44.0506 -45.03019,-44.0506 z" /></g></svg>
